<!DOCTYPE svg PUBLIC "-//W3C//DTD SVG 20010904//EN" "http://www.w3.org/TR/2001/REC-SVG-20010904/DTD/svg10.dtd">
<svg version="1.0" xmlns="http://www.w3.org/2000/svg" width="1200px" height="1200px" viewBox="0 0 12000 12000" preserveAspectRatio="xMidYMid meet">
<g id="layer101" fill="#000000" stroke="none">
 <path d="M3805 10664 c-173 -24 -269 -58 -391 -139 -306 -204 -445 -572 -353 -933 37 -145 96 -248 213 -371 128 -133 281 -216 462 -248 99 -18 99 -18 -147 -23 -245 -5 -245 -5 -312 -39 -158 -80 -263 -260 -242 -415 16 -125 103 -326 293 -678 112 -207 112 -207 -481 -2965 -593 -2758 -593 -2758 -1332 -2763 -557 -4 -749 -9 -777 -18 -54 -19 -153 -95 -193 -149 -59 -81 -79 -144 -79 -253 0 -114 21 -176 88 -261 49 -62 111 -108 195 -141 56 -23 56 -23 928 -26 493 -2 910 1 957 6 108 12 198 53 264 120 89 88 137 222 195 542 34 185 34 185 4103 190 4069 5 4069 5 4122 27 111 45 210 144 256 256 21 52 21 52 24 1812 2 1247 0 1779 -8 1824 -28 163 -139 292 -291 340 -46 15 -439 64 -1364 172 -5038 585 -5700 664 -5703 682 -2 10 14 91 35 180 63 269 56 333 -63 586 -30 63 -54 116 -54 117 0 2 1396 4 3103 4 2755 0 3109 2 3162 15 226 59 367 287 311 502 -21 85 -46 130 -106 197 -37 39 -74 67 -128 93 -76 38 -76 38 -316 43 -179 4 -227 7 -186 13 351 53 626 290 722 624 31 109 31 330 0 446 -79 289 -326 532 -617 608 -95 24 -284 29 -384 10 -277 -54 -539 -284 -632 -554 -86 -251 -50 -546 92 -754 48 -71 166 -190 233 -235 94 -64 201 -109 321 -134 110 -22 110 -22 -2840 -22 -1929 0 -2931 4 -2895 10 180 32 306 86 431 186 138 111 242 267 291 439 31 109 31 330 0 446 -78 287 -328 535 -612 606 -75 19 -239 33 -295 25z"/>
 </g>

</svg>