<!DOCTYPE svg PUBLIC "-//W3C//DTD SVG 20010904//EN" "http://www.w3.org/TR/2001/REC-SVG-20010904/DTD/svg10.dtd">
<svg version="1.0" xmlns="http://www.w3.org/2000/svg" width="350px" height="206px" viewBox="0 0 350 206" preserveAspectRatio="xMidYMid meet">
 <g id="layer101" fill="#181311" stroke="none">
  <path d="M136.1818 193.6667 c-8.2727 -4.0303 -14.2121 -11.8788 -16.7576 -21.8485 -1.697 -6.1515 -2.9697 -7.4242 -8.2727 -7.8485 -3.3939 0 -7.6364 -0.4242 -9.5455 -0.4242 -2.7576 -0.2121 -2.9697 -2.1212 -1.697 -11.8788 0.8485 -6.3636 3.6061 -14.4242 6.1515 -18.0303 8.9091 -12.7273 9.3333 -12.7273 61.0909 -12.7273 l47.5151 0 -1.2727 7 c-4.4545 23.7576 -4.4545 22.697 2.1212 22.697 8.9091 -0.2121 22.4848 -7 29.0606 -14.6364 10.1818 -12.0909 14.2121 -33.5152 10.8182 -58.1212 -1.2727 -8.2727 -2.5455 -10.6061 -8.4848 -14 -7.8485 -4.6667 -9.3333 -10.6061 -3.8182 -15.9091 2.3333 -2.5455 7.6364 -3.3939 21 -3.3939 l17.6061 0 1.4848 6.3636 c0.8485 3.6061 0.8485 9.3333 0 12.7273 -1.0606 4.8788 -2.5455 6.3636 -6.3636 6.3636 l-5.0909 0 5.0909 9.9697 c2.7576 5.7273 6.7879 17.3939 8.9091 26.5152 l3.6061 16.1212 8.2727 1.2727 c17.6061 2.9697 30.5455 13.1515 35.4242 28 2.9697 8.697 1.9091 12.5152 -2.9697 12.5152 -2.5455 0 -4.6667 2.7576 -6.5758 7.8485 -4.0303 12.0909 -8.4848 17.6061 -16.5455 21.6364 -19.0909 8.9091 -39.6667 -0.2121 -46.4545 -21 -1.9091 -5.7273 -4.0303 -8.4848 -6.5758 -8.2727 -2.5455 0.2121 -3.6061 -1.2727 -3.6061 -4.6667 0 -6.1515 0 -6.1515 -8.9091 -0.8485 -5.303 2.9697 -13.3636 4.4545 -32.2424 5.7273 l-25.0303 1.697 -2.7576 8.0606 c-3.3939 10.1818 -8.697 16.1212 -17.3939 19.7273 -9.1212 3.8182 -19.0909 3.6061 -27.7879 -0.6364z m26.303 -20.7879 c1.9091 -2.9697 2.9697 -5.9394 2.1212 -6.7879 -3.8182 -4.0303 -26.7273 -2.3333 -26.7273 1.9091 0 5.0909 7.2121 10.1818 14 10.1818 5.303 0 8.0606 -1.4848 10.6061 -5.303z m139.1515 1.697 c7.4242 -6.7879 4.8788 -9.1212 -9.9697 -9.1212 -7.6364 0 -13.7879 0.6364 -13.7879 1.697 0 0.8485 1.4848 3.8182 3.3939 6.3636 3.8182 5.7273 14.6364 6.3636 20.3636 1.0606z"/>
</g>
 <g id="layer102" fill="#fe6708" stroke="none">
  <path d="M121.7576 112.8485 c-8.2727 -6.5758 -9.1212 -11.0303 -8.4848 -50.2727 0.4242 -39.4545 1.697 -45.6061 9.7576 -49.8485 2.3333 -1.2727 21.2121 -2.1212 45.1818 -2.1212 55.5758 0 51.1212 -4.0303 51.9697 49 0.4242 22.4848 0.2121 43.0606 -0.6364 45.8182 -2.3333 9.5455 -10.1818 11.2424 -53.4545 11.2424 -34.5758 0 -40.5151 -0.6364 -44.3333 -3.8182z"/>
  <path d="M66.8182 103.0909 c-3.3939 -2.5455 -3.8182 -4.0303 -2.1212 -9.1212 2.1212 -5.9394 2.3333 -5.9394 22.9091 -6.5758 l20.5758 -0.6364 0 9.7576 0 9.5455 -18.6667 0 c-12.7273 0 -19.9394 -1.0606 -22.697 -2.9697z"/>
  <path d="M15.2727 73.8182 c-3.1818 -3.1818 -3.1818 -10.8182 0 -14 1.9091 -1.9091 15.4848 -2.5455 47.7273 -2.5455 l45.1818 0 0 9.5455 0 9.5455 -45.1818 0 c-32.2424 0 -45.8182 -0.6364 -47.7273 -2.5455z"/>
  <path d="M37.3333 41.1515 c-4.2424 -4.0303 -4.2424 -5.0909 0 -11.0303 3.1818 -4.4545 4.4545 -4.6667 37.1212 -4.6667 l33.7273 0 0 9.5455 0 9.5455 -33.7273 0 c-28 0 -34.3636 -0.6364 -37.1212 -3.3939z"/>
</g>

</svg>