<!DOCTYPE svg PUBLIC "-//W3C//DTD SVG 20010904//EN" "http://www.w3.org/TR/2001/REC-SVG-20010904/DTD/svg10.dtd">
<svg version="1.0" xmlns="http://www.w3.org/2000/svg" width="512px" height="512px" viewBox="0 0 5120 5120" preserveAspectRatio="xMidYMid meet">
<g id="layer101" fill="#ee3840" stroke="none">
 <path d="M2485 5106 c-27 -7 -60 -18 -73 -25 -41 -22 -164 -133 -361 -326 -850 -834 -1371 -1730 -1461 -2515 -16 -138 -14 -407 4 -527 128 -855 763 -1516 1611 -1678 272 -52 590 -39 865 36 623 168 1126 625 1348 1224 86 230 123 438 123 680 0 423 -101 805 -337 1279 -285 570 -826 1244 -1409 1756 -104 91 -206 123 -310 96z"/>
 </g>
<g id="layer102" fill="#ffe0d6" stroke="none">
 <path d="M2425 2980 c-575 -90 -958 -626 -844 -1183 77 -382 354 -674 737 -779 111 -31 373 -31 484 0 186 51 332 135 463 267 491 492 346 1310 -286 1610 -154 73 -394 110 -554 85z"/>
 </g>

</svg>