<?xml version="1.0" standalone="no"?>
<!DOCTYPE svg PUBLIC "-//W3C//DTD SVG 20010904//EN"
 "http://www.w3.org/TR/2001/REC-SVG-20010904/DTD/svg10.dtd">
<svg version="1.0" xmlns="http://www.w3.org/2000/svg"
 width="1720.000000pt" height="1856.000000pt" viewBox="0 0 1720.000000 1856.000000"
 preserveAspectRatio="xMidYMid meet">

<g transform="translate(0.000000,1856.000000) scale(0.100000,-0.100000)"
fill="#000000" stroke="none">
<path d="M7699 18409 c-114 -26 -204 -79 -441 -257 -181 -135 -262 -189 -375
-246 -115 -57 -381 -158 -764 -289 -670 -230 -1112 -396 -1280 -483 -222 -115
-1052 -803 -1701 -1410 -688 -644 -1006 -1137 -1127 -1744 -66 -333 -75 -573
-67 -1795 9 -1440 27 -2057 67 -2322 65 -432 196 -766 484 -1233 355 -576 416
-725 494 -1215 75 -465 138 -683 262 -900 257 -452 710 -759 1617 -1096 507
-188 993 -384 1437 -579 499 -219 818 -345 970 -381 225 -53 585 -41 1007 35
271 49 444 94 728 189 l185 61 125 0 c133 -1 137 -1 430 -89 165 -49 313 -58
436 -27 138 35 287 99 609 262 1450 735 2466 1436 3050 2105 184 210 360 505
513 860 166 382 234 652 336 1325 130 848 145 913 316 1350 142 360 166 466
157 677 -8 192 -40 327 -207 863 -165 531 -239 808 -280 1052 l-23 137 116
193 c191 317 226 411 226 598 1 250 -51 447 -172 653 -228 385 -521 655 -1242
1142 -411 278 -556 396 -880 719 -126 126 -282 274 -345 329 -726 629 -1600
988 -2565 1056 -77 5 -187 13 -245 16 -161 9 -273 25 -297 41 -18 11 -21 20
-16 46 7 36 7 36 -97 -9 -61 -26 -73 -28 -195 -27 -190 1 -236 16 -565 182
-151 77 -306 151 -345 165 -139 52 -248 67 -336 46z m493 -1095 c46 -8 151
-33 233 -54 83 -22 194 -46 247 -55 132 -21 395 -35 678 -35 643 -1 1208 -77
1663 -225 424 -137 915 -397 1227 -648 99 -80 303 -280 399 -392 156 -180 334
-432 505 -712 38 -62 72 -113 76 -113 4 0 10 14 14 32 17 85 27 108 46 108 24
0 128 -123 329 -390 383 -511 560 -831 658 -1197 52 -193 51 -273 -6 -523 -58
-255 -61 -305 -26 -417 42 -137 112 -268 236 -443 118 -168 140 -229 189 -525
72 -434 95 -762 71 -990 -24 -222 -101 -549 -245 -1035 -124 -421 -126 -423
-368 -605 -384 -289 -521 -420 -680 -655 -36 -53 -73 -117 -83 -143 l-18 -48
28 -29 c26 -27 27 -33 18 -64 -45 -146 -557 -705 -860 -939 -247 -190 -475
-321 -1203 -692 -535 -273 -831 -431 -968 -517 -136 -85 -240 -140 -246 -130
-31 51 -101 299 -220 784 -123 500 -173 688 -228 856 -34 107 -43 124 -66 133
-60 24 -183 -21 -360 -129 -86 -52 -168 -89 -178 -79 -23 22 279 454 482 689
97 111 143 149 350 284 82 53 168 112 192 131 85 69 105 164 55 263 -16 30
-39 62 -53 72 -36 25 -123 45 -295 68 -158 21 -246 42 -263 63 -5 6 -29 94
-51 194 -49 217 -207 1005 -217 1081 l-7 52 44 0 c98 0 303 -46 642 -144 264
-76 311 -85 354 -62 60 31 128 139 118 186 -12 57 -71 97 -310 215 -126 62
-239 120 -250 128 -19 15 -18 17 35 41 127 58 457 143 513 132 18 -3 84 -35
147 -71 165 -93 430 -176 815 -254 316 -64 460 -76 495 -41 46 46 10 119 -83
164 -29 14 -155 53 -282 86 -310 82 -415 115 -511 159 -99 47 -139 85 -190
186 -55 110 -70 119 -204 123 -382 12 -923 -140 -1235 -345 -239 -158 -351
-291 -532 -628 l-64 -120 5 265 c5 278 20 431 70 700 56 299 109 436 199 514
49 43 82 62 270 150 102 48 120 75 113 166 -6 84 -21 116 -60 130 -33 12 -266
29 -401 30 -44 0 -85 4 -91 8 -13 8 -54 434 -54 559 0 81 0 81 33 102 168 104
795 371 870 371 75 0 173 -63 248 -159 66 -86 120 -195 179 -366 54 -156 77
-200 111 -210 44 -14 169 74 169 120 0 12 -22 86 -50 164 -27 78 -50 155 -50
171 l0 29 53 -16 c28 -8 102 -38 162 -65 142 -64 262 -108 300 -108 50 0 97
33 143 101 53 80 54 107 5 149 -21 17 -189 107 -373 200 -333 168 -430 222
-430 238 0 14 193 100 446 201 126 49 373 147 549 217 397 157 522 211 529
230 15 38 -95 166 -152 177 -37 7 -111 -5 -374 -62 -102 -23 -204 -41 -226
-41 -62 0 -68 14 -49 126 11 65 13 104 6 120 -12 32 -69 56 -138 58 -51 1 -55
-1 -90 -40 -20 -23 -85 -137 -146 -254 l-110 -213 -285 -109 c-946 -359 -1369
-518 -1383 -518 -30 0 -39 72 -35 274 3 190 3 191 34 256 58 121 139 216 560
655 411 430 564 607 564 652 0 49 -50 113 -88 113 -56 0 -190 -88 -624 -409
-296 -219 -442 -318 -446 -300 -1 8 29 107 67 220 39 114 82 262 95 330 57
284 62 566 10 674 -19 41 -71 62 -128 51 -68 -13 -84 -62 -96 -291 -12 -214
-33 -305 -105 -451 -57 -115 -93 -161 -119 -151 -8 3 -22 30 -31 60 -10 35
-28 65 -51 88 -31 30 -41 34 -89 34 -48 0 -59 -4 -86 -31 -44 -44 -47 -88 -14
-228 16 -64 25 -119 22 -122 -3 -3 -58 25 -124 62 -110 62 -201 117 -760 456
-244 147 -426 244 -479 254 -47 9 -80 -8 -101 -50 -42 -90 38 -180 442 -493
458 -355 655 -523 797 -680 117 -128 203 -268 234 -378 34 -127 29 -732 -12
-1190 -12 -134 -76 -629 -87 -668 -2 -5 -141 315 -311 710 l-309 719 -176 116
c-291 191 -388 236 -392 180 -5 -74 35 -134 183 -274 71 -66 136 -134 144
-150 19 -37 46 -176 73 -373 26 -191 51 -431 51 -491 l0 -47 -32 6 c-18 3 -89
30 -158 60 -228 101 -473 161 -897 221 -254 36 -408 45 -445 25 -25 -13 -57
-84 -58 -126 0 -59 50 -81 516 -223 406 -124 484 -160 704 -319 119 -86 508
-395 648 -516 112 -96 107 -100 -70 -56 -68 17 -136 31 -152 31 -26 0 -27 -2
-21 -32 15 -74 149 -557 350 -1263 117 -412 248 -874 290 -1025 42 -151 79
-284 82 -295 9 -32 -49 27 -241 245 -320 364 -573 675 -616 760 -27 53 -50
150 -50 211 0 127 -35 247 -88 302 -46 49 -57 51 -96 16 -26 -22 -165 -189
-182 -217 0 -1 -228 128 -505 286 -745 428 -1089 610 -1155 615 -23 2 -31 -4
-46 -33 -9 -19 -20 -50 -24 -68 -16 -79 68 -148 610 -510 l400 -267 -45 -7
c-24 -5 -181 -24 -349 -42 -333 -38 -387 -48 -420 -78 -19 -18 -22 -29 -18
-75 3 -32 13 -65 25 -81 39 -53 61 -55 533 -61 l435 -6 237 -193 c481 -392
519 -439 814 -1024 l154 -308 -239 -1007 c-393 -1649 -369 -1556 -404 -1574
-30 -16 -114 4 -321 76 -421 146 -665 264 -991 480 -324 214 -589 428 -1261
1017 -321 282 -472 391 -725 524 -251 131 -327 193 -390 316 -41 81 -61 161
-129 528 -72 387 -87 501 -71 536 6 14 11 33 11 42 0 27 -70 166 -163 324
-306 518 -507 998 -507 1207 0 78 7 91 51 100 43 9 47 32 20 106 -36 97 -45
218 -46 605 0 486 5 515 185 1240 54 217 114 472 134 565 60 275 65 293 108
378 57 115 157 265 371 559 451 621 613 881 763 1229 107 248 114 255 287 290
274 56 359 118 864 628 l362 365 108 -51 c182 -87 229 -98 433 -98 191 0 263
11 440 67 165 52 248 87 535 225 513 248 717 323 940 347 68 7 250 -4 337 -20z"/>
<path d="M8929 16826 c-52 -18 -83 -43 -177 -139 -108 -112 -125 -149 -130
-292 -6 -168 22 -265 109 -382 42 -57 82 -83 125 -83 77 0 236 134 288 244 63
133 73 305 26 431 -36 96 -103 190 -153 214 -50 24 -42 24 -88 7z"/>
<path d="M7893 16629 c-40 -12 -80 -59 -89 -104 -30 -161 150 -385 310 -385
39 0 53 5 76 28 32 32 50 86 50 149 0 170 -204 353 -347 312z"/>
<path d="M10156 16495 c-152 -54 -274 -307 -236 -490 23 -111 94 -145 222
-106 148 47 248 199 248 382 0 174 -97 263 -234 214z"/>
<path d="M7215 16214 c-48 -25 -114 -95 -140 -150 -63 -133 -49 -307 34 -427
51 -75 87 -107 118 -107 65 0 175 99 221 199 23 48 27 70 27 151 0 127 -36
230 -105 302 -40 41 -52 48 -86 48 -21 0 -52 -7 -69 -16z"/>
<path d="M5850 16187 c-154 -35 -198 -114 -155 -277 81 -305 385 -498 668
-424 79 20 133 48 153 80 28 42 30 157 4 233 -86 257 -414 446 -670 388z"/>
<path d="M9380 16071 c-46 -24 -122 -125 -151 -198 -15 -39 -24 -88 -27 -150
-8 -156 43 -277 155 -368 84 -69 108 -65 204 33 101 103 121 154 121 307 0 90
-4 121 -22 170 -36 94 -171 225 -232 225 -7 0 -29 -8 -48 -19z"/>
<path d="M10612 15849 c-230 -38 -422 -192 -482 -386 -38 -124 -20 -193 65
-251 237 -161 641 -34 775 244 57 117 60 275 6 320 -33 29 -119 61 -198 74
-72 11 -92 11 -166 -1z"/>
<path d="M7783 15745 c-44 -19 -66 -66 -71 -157 -11 -187 77 -351 227 -421 71
-33 158 -41 199 -18 64 35 86 203 42 331 -57 170 -184 281 -319 280 -25 -1
-60 -7 -78 -15z"/>
<path d="M11985 15416 c-153 -37 -280 -155 -336 -312 -28 -79 -31 -201 -6
-267 27 -68 56 -80 171 -75 123 6 200 41 297 135 119 115 175 269 149 409 -7
35 -20 74 -29 85 -29 37 -150 49 -246 25z"/>
<path d="M5205 15330 c-99 -18 -118 -47 -119 -185 -1 -121 21 -174 108 -260
79 -79 176 -135 275 -161 85 -21 135 -12 182 35 69 68 74 213 13 320 -35 60
-188 212 -239 235 -45 22 -147 29 -220 16z"/>
<path d="M11077 15210 c-189 -48 -337 -254 -337 -471 0 -81 26 -171 57 -201
22 -20 35 -23 106 -23 71 0 91 4 150 32 168 80 267 237 267 426 0 96 -23 187
-55 217 -27 26 -124 36 -188 20z"/>
<path d="M6420 14955 c-120 -34 -217 -123 -280 -258 -69 -148 -63 -188 33
-232 112 -52 277 -56 372 -10 106 51 242 201 270 299 27 91 -6 150 -104 187
-75 28 -216 35 -291 14z"/>
<path d="M10105 14861 c-47 -21 -140 -117 -177 -181 -70 -120 -77 -276 -19
-395 40 -80 98 -145 132 -145 32 0 168 139 205 210 28 54 29 59 29 205 0 115
-4 163 -18 207 -31 102 -79 133 -152 99z"/>
<path d="M4197 14696 c-99 -29 -148 -93 -155 -205 -9 -137 48 -277 164 -399
81 -86 150 -132 252 -168 241 -83 465 -28 496 122 16 73 -28 228 -95 340 -74
123 -231 248 -365 293 -86 29 -227 37 -297 17z"/>
<path d="M12453 14651 c-121 -33 -202 -82 -304 -183 -111 -111 -171 -225 -149
-283 28 -74 182 -195 302 -236 177 -62 460 3 640 146 61 49 138 155 165 228
22 60 8 93 -73 172 -69 68 -143 115 -230 147 -85 31 -252 35 -351 9z"/>
<path d="M5494 14230 c-36 -14 -83 -78 -101 -138 -13 -41 -18 -89 -17 -172 1
-151 21 -208 101 -279 62 -55 209 -135 239 -129 49 9 154 224 154 315 -1 124
-127 306 -259 372 -72 36 -91 41 -117 31z"/>
<path d="M7386 14209 c-109 -27 -235 -130 -256 -211 -16 -56 -5 -91 39 -131
73 -66 177 -70 292 -12 130 66 208 217 154 299 -34 51 -141 77 -229 55z"/>
<path d="M9346 14196 c-55 -21 -87 -46 -108 -88 -18 -34 -18 -39 -3 -74 16
-38 73 -115 110 -146 53 -46 222 -63 325 -32 66 20 120 69 120 111 -1 79 -85
171 -197 213 -75 28 -194 36 -247 16z"/>
<path d="M6393 14105 c-65 -28 -81 -115 -37 -203 74 -149 320 -240 404 -150
55 60 28 162 -69 259 -97 97 -210 133 -298 94z"/>
<path d="M12740 13654 c-204 -44 -356 -204 -296 -312 20 -37 132 -147 183
-181 95 -63 201 -76 339 -41 218 55 350 183 315 302 -18 57 -108 146 -191 186
-125 61 -223 74 -350 46z"/>
<path d="M11136 13619 c-66 -16 -157 -70 -182 -109 -38 -58 -39 -84 -10 -145
86 -175 359 -277 551 -205 85 32 151 99 160 163 6 42 4 56 -21 105 -35 68
-122 142 -204 174 -62 24 -227 34 -294 17z"/>
<path d="M3905 13567 c-103 -35 -185 -97 -185 -141 0 -62 42 -140 114 -212 61
-61 79 -73 132 -87 127 -35 313 -14 375 43 115 109 -118 393 -333 406 -36 2
-80 -2 -103 -9z"/>
<path d="M7785 13516 c-95 -95 34 -285 193 -286 126 0 122 158 -6 258 -54 43
-76 52 -122 52 -30 0 -47 -6 -65 -24z"/>
<path d="M6245 13496 c-42 -19 -69 -51 -99 -117 -75 -164 -49 -325 73 -447
106 -106 193 -133 251 -77 67 63 117 208 106 305 -8 74 -53 163 -121 237 -86
96 -150 126 -210 99z"/>
<path d="M4861 13280 c-118 -32 -212 -96 -227 -155 -10 -39 30 -185 71 -264
48 -90 103 -151 183 -204 75 -50 218 -109 323 -134 66 -16 75 -16 134 -1 114
30 222 77 267 117 l43 39 -1 73 c-1 122 -70 267 -173 367 -151 145 -422 216
-620 162z"/>
<path d="M12061 13023 c-67 -35 -92 -67 -98 -127 -11 -95 55 -191 172 -253 89
-47 145 -57 211 -38 102 30 140 90 115 183 -23 86 -104 168 -228 230 -71 36
-110 38 -172 5z"/>
<path d="M3391 12809 c-73 -14 -142 -39 -208 -75 -107 -59 -136 -115 -115
-225 32 -173 206 -387 387 -474 211 -103 575 -80 706 44 34 33 39 44 39 82 0
76 -28 181 -71 267 -129 264 -462 435 -738 381z"/>
<path d="M13184 12780 c-123 -32 -226 -93 -265 -157 -46 -75 0 -204 115 -319
126 -126 257 -171 470 -161 185 9 327 58 412 142 86 87 77 154 -35 266 -113
113 -266 196 -428 233 -93 21 -180 20 -269 -4z"/>
<path d="M11333 12705 c-73 -16 -99 -29 -113 -55 -18 -34 -23 -143 -11 -215
18 -104 54 -170 135 -250 120 -118 255 -175 422 -175 100 0 169 20 219 63 37
32 39 37 38 88 -4 127 -75 280 -178 385 -139 140 -329 199 -512 159z"/>
<path d="M9037 12664 c-66 -36 -52 -134 33 -228 80 -87 169 -117 239 -81 76
39 60 167 -31 256 -64 62 -178 87 -241 53z"/>
<path d="M4700 12326 c-106 -29 -183 -92 -196 -161 -14 -77 60 -186 161 -235
132 -64 295 -66 415 -5 43 21 117 90 136 127 29 56 7 123 -63 189 -75 72 -161
99 -308 98 -55 0 -120 -6 -145 -13z"/>
<path d="M9840 12179 c-145 -25 -260 -121 -260 -216 0 -62 72 -126 187 -164
92 -30 197 -24 272 16 59 33 178 154 187 192 8 30 -16 65 -75 110 -72 55 -202
81 -311 62z"/>
<path d="M6517 12039 c-102 -24 -194 -97 -240 -189 -32 -65 -34 -92 -7 -136
96 -154 455 -55 510 142 39 140 -83 225 -263 183z"/>
<path d="M5675 11971 c-44 -20 -110 -86 -142 -141 -62 -105 -89 -310 -59 -450
31 -148 104 -253 211 -306 52 -25 54 -25 89 -9 61 29 150 135 203 241 47 95
48 99 51 203 6 174 -49 325 -150 416 -73 65 -133 79 -203 46z"/>
<path d="M10660 11976 c-77 -21 -142 -59 -210 -123 -117 -110 -173 -241 -151
-352 18 -91 64 -121 186 -121 126 1 225 43 327 139 111 104 170 250 139 344
-33 98 -162 149 -291 113z"/>
<path d="M12638 11826 c-104 -28 -133 -72 -125 -186 9 -131 74 -272 173 -375
67 -70 131 -110 229 -142 67 -22 98 -26 195 -26 148 0 216 20 242 73 24 46 24
195 2 271 -57 192 -204 333 -400 383 -74 19 -248 20 -316 2z"/>
<path d="M11665 11665 c-191 -53 -371 -219 -425 -392 -26 -84 -36 -184 -21
-211 22 -41 133 -82 261 -96 124 -15 299 32 413 110 80 55 128 108 167 184
106 208 68 345 -111 401 -72 23 -208 24 -284 4z"/>
<path d="M4076 11614 c-113 -27 -258 -125 -286 -194 -32 -77 16 -226 105 -328
102 -115 234 -182 397 -203 252 -31 539 73 564 206 7 39 -32 146 -80 218 -40
60 -133 155 -189 193 -155 105 -352 147 -511 108z"/>
<path d="M9433 11494 c-63 -14 -162 -149 -178 -243 -18 -107 99 -155 224 -92
110 57 179 236 118 307 -21 23 -33 28 -83 30 -32 1 -69 0 -81 -2z"/>
<path d="M6629 11194 c-61 -18 -134 -91 -173 -174 -54 -116 -38 -243 41 -316
76 -70 238 25 293 172 31 83 35 141 17 205 -28 96 -94 137 -178 113z"/>
<path d="M7356 10827 c-59 -14 -121 -81 -142 -153 -30 -103 -3 -164 71 -164
53 0 124 46 169 108 26 37 31 53 31 102 0 91 -44 127 -129 107z"/>
<path d="M3847 10526 c-69 -29 -114 -61 -185 -136 -99 -101 -139 -198 -108
-259 63 -122 282 -136 448 -30 64 41 146 132 174 194 15 31 24 69 24 99 0 44
-4 53 -38 85 -74 70 -209 90 -315 47z"/>
<path d="M12275 10471 c-129 -59 -139 -213 -26 -387 84 -131 198 -211 334
-234 126 -22 256 16 305 90 21 31 23 44 20 105 -7 102 -43 172 -137 265 -80
80 -172 135 -270 164 -74 22 -175 20 -226 -3z"/>
<path d="M11254 10238 c-74 -69 -105 -242 -69 -382 53 -203 193 -383 341 -438
142 -53 218 -47 277 23 75 87 106 249 73 379 -64 252 -298 450 -533 450 -46 0
-58 -4 -89 -32z"/>
<path d="M10607 10130 c-55 -10 -69 -28 -69 -92 -1 -148 127 -278 275 -278 79
0 97 19 97 101 0 84 -16 132 -62 184 -61 69 -150 101 -241 85z"/>
<path d="M4578 10031 c-150 -49 -280 -174 -327 -313 -39 -116 -26 -146 92
-202 73 -34 127 -45 222 -46 259 -1 493 178 512 392 6 57 5 59 -31 93 -82 77
-339 119 -468 76z"/>
<path d="M9944 9941 c-114 -52 -91 -212 52 -354 79 -80 149 -117 217 -117 42
0 54 5 82 33 86 86 60 242 -60 362 -87 87 -201 117 -291 76z"/>
<path d="M5736 9444 c-191 -46 -338 -206 -382 -416 -35 -165 12 -227 194 -258
74 -13 140 -3 232 34 230 94 362 301 331 519 -13 92 -28 113 -91 126 -69 15
-212 12 -284 -5z"/>
<path d="M12625 4336 c-329 -133 -518 -227 -532 -263 -10 -26 101 -223 125
-223 9 0 512 160 611 194 112 39 121 47 121 107 0 62 -45 200 -76 234 -13 14
-33 25 -46 24 -13 0 -104 -33 -203 -73z"/>
<path d="M2090 2840 l0 -840 208 2 207 3 13 175 c8 96 15 176 16 177 1 1 89 9
196 18 403 34 541 88 659 256 91 129 128 280 117 479 -7 133 -25 211 -69 294
-70 132 -178 208 -340 241 -110 22 -371 35 -714 35 l-293 0 0 -840z m784 439
c137 -28 223 -124 213 -240 -6 -68 -45 -149 -87 -179 -59 -42 -115 -52 -309
-57 l-184 -6 7 144 c3 79 9 188 13 241 l6 97 66 4 c149 7 221 6 275 -4z"/>
<path d="M3803 2903 c3 -428 9 -798 14 -823 7 -41 12 -46 47 -58 21 -7 119
-15 217 -19 l179 -6 0 841 0 842 -231 0 -231 0 5 -777z"/>
<path d="M5248 3665 c-128 -21 -270 -71 -352 -125 -89 -59 -211 -186 -264
-276 -23 -38 -55 -112 -73 -164 -91 -274 -21 -579 187 -808 200 -221 447 -304
809 -272 193 16 235 10 295 -46 26 -24 55 -44 65 -44 22 0 70 36 149 110 113
106 135 155 100 222 -23 44 -13 99 40 215 62 137 87 223 93 330 15 234 -72
456 -244 626 -118 116 -227 181 -370 218 -103 27 -315 34 -435 14z m291 -392
c107 -36 225 -132 284 -233 36 -61 61 -163 53 -217 -6 -45 -38 -117 -56 -128
-25 -16 -68 11 -159 100 -54 52 -102 95 -107 95 -11 0 -134 -98 -188 -148 -49
-47 -69 -92 -56 -126 5 -14 37 -55 70 -91 62 -67 74 -101 45 -125 -24 -20 -87
-6 -188 43 -165 81 -233 162 -256 308 -29 175 1 330 76 401 61 58 197 124 293
142 39 7 139 -4 189 -21z"/>
<path d="M6463 3664 c-11 -29 6 -664 21 -794 40 -335 105 -501 255 -650 97
-96 179 -145 306 -182 71 -20 101 -23 275 -23 188 0 198 1 275 28 236 83 453
337 510 595 18 82 37 564 33 842 l-3 195 -210 0 -210 0 -6 -390 c-7 -412 -17
-519 -59 -626 -42 -106 -99 -163 -230 -230 -91 -46 -149 -46 -250 2 -41 20
-90 48 -108 64 -39 33 -85 120 -100 190 -6 28 -14 64 -17 80 -4 17 -10 228
-14 470 l-6 440 -228 3 c-204 2 -228 1 -234 -14z"/>
<path d="M8385 3668 c-3 -7 -4 -384 -3 -838 l3 -825 208 -3 207 -2 0 840 0
840 -205 0 c-155 0 -207 -3 -210 -12z"/>
<path d="M9175 3668 c-3 -7 -4 -384 -3 -838 l3 -825 645 0 645 0 3 188 2 187
-52 1 c-29 0 -222 6 -428 12 l-375 12 -8 385 c-4 212 -11 498 -15 635 l-7 250
-203 3 c-156 2 -204 0 -207 -10z"/>
<path d="M10757 3673 c-11 -10 -8 -1661 2 -1667 10 -6 1253 13 1289 20 22 4
22 6 22 169 l0 164 -32 5 c-18 3 -214 13 -435 23 l-401 17 -6 115 c-3 64 -8
287 -11 496 -3 209 -8 444 -11 523 l-6 142 -203 0 c-111 0 -205 -3 -208 -7z"/>
<path d="M12340 2840 l0 -840 208 2 207 3 0 835 0 835 -207 3 -208 2 0 -840z"/>
<path d="M13140 2840 l0 -840 210 0 210 0 2 503 3 502 399 -493 c219 -272 404
-495 410 -498 6 -2 107 -5 224 -6 l212 -3 0 838 0 837 -209 0 -210 0 -3 -418
c-3 -442 -4 -452 -49 -452 -26 0 -115 91 -249 254 -63 77 -204 247 -312 378
l-198 238 -220 0 -220 0 0 -840z"/>
<path d="M3187 1516 c-50 -18 -113 -63 -137 -96 -11 -15 -29 -53 -41 -84 -16
-43 -30 -63 -54 -77 -53 -32 -56 -84 -8 -125 35 -30 43 -76 49 -299 7 -244 12
-270 58 -285 43 -14 83 1 98 37 6 16 14 125 17 259 7 259 11 272 78 295 57 18
83 39 83 64 0 32 -20 45 -79 52 -104 12 -105 49 -3 128 33 26 64 57 70 70 24
53 -54 89 -131 61z"/>
<path d="M4329 1501 c-21 -22 -29 -39 -29 -65 0 -41 20 -56 75 -56 55 0 75 15
75 56 0 39 -44 94 -75 94 -9 0 -30 -13 -46 -29z"/>
<path d="M2707 1498 c-26 -20 -35 -93 -42 -333 -7 -239 6 -544 25 -587 30 -65
76 -33 91 64 15 98 7 784 -10 823 -18 44 -36 53 -64 33z"/>
<path d="M13642 1463 c-15 -34 -17 -83 -17 -433 0 -428 4 -462 51 -480 34 -13
83 -1 96 24 18 32 21 232 9 522 -14 346 -28 404 -97 404 -19 0 -29 -8 -42 -37z"/>
<path d="M9153 1412 c-15 -10 -33 -57 -33 -88 0 -38 -33 -64 -83 -64 -63 0
-156 -19 -199 -41 -49 -25 -66 -24 -94 6 -31 34 -86 34 -119 1 -34 -34 -40
-89 -40 -366 0 -263 5 -293 50 -310 35 -13 83 -1 97 24 7 12 15 95 19 191 10
265 35 301 237 345 144 32 129 53 134 -187 5 -184 8 -215 27 -265 14 -35 33
-65 51 -78 42 -30 124 -43 187 -30 99 21 95 62 -12 118 -60 32 -73 44 -95 87
-23 46 -25 61 -25 192 0 170 1 172 99 182 94 10 127 46 91 98 -11 16 -31 24
-66 29 -59 8 -96 34 -116 83 -28 67 -73 97 -110 73z"/>
<path d="M3670 1249 c-168 -28 -268 -137 -287 -309 -15 -146 71 -325 185 -384
55 -28 139 -35 247 -20 55 8 147 14 205 13 l105 -1 -1 303 c-1 306 -7 373 -39
399 -19 16 -74 -2 -105 -35 -27 -29 -52 -32 -71 -8 -33 39 -143 58 -239 42z
m208 -148 c51 -36 65 -74 70 -186 5 -124 -7 -173 -53 -214 -72 -63 -174 -61
-258 3 -92 70 -118 187 -65 291 30 57 56 84 113 114 54 29 147 25 193 -8z"/>
<path d="M4331 1243 c-33 -28 -41 -103 -41 -397 -1 -286 -11 -461 -31 -498 -6
-13 -27 -36 -45 -51 -41 -34 -45 -73 -11 -105 29 -28 37 -27 95 2 69 36 126
89 141 133 18 50 28 713 12 823 -11 81 -31 110 -76 110 -13 0 -32 -8 -44 -17z"/>
<path d="M4853 1250 c-126 -25 -224 -123 -259 -260 -48 -189 51 -384 233 -455
87 -34 124 -31 237 14 186 74 266 189 254 359 -17 226 -236 387 -465 342z
m148 -130 c90 -25 161 -127 162 -233 0 -99 -31 -150 -132 -218 -55 -37 -94
-36 -183 4 -81 36 -93 62 -93 202 0 94 4 117 23 157 27 54 39 66 89 84 46 16
86 17 134 4z"/>
<path d="M5693 1249 c-18 -5 -40 -21 -49 -34 -21 -31 -35 -31 -62 0 -42 48
-111 45 -137 -6 -37 -70 -45 -542 -11 -623 24 -58 104 -55 133 4 6 14 18 103
27 198 18 214 26 233 116 284 108 62 146 122 103 161 -24 20 -80 28 -120 16z"/>
<path d="M6181 1245 c-79 -22 -147 -63 -196 -117 -56 -63 -75 -120 -75 -229 0
-146 44 -250 128 -303 60 -37 188 -86 225 -86 38 0 122 27 187 60 55 28 144
111 164 155 47 99 -71 96 -192 -4 -31 -27 -71 -56 -89 -65 -44 -22 -106 -20
-154 5 -49 24 -129 102 -129 124 0 31 65 45 273 59 130 9 218 20 241 30 54 23
69 75 44 160 -18 62 -126 167 -202 195 -78 29 -158 35 -225 16z m147 -130 c62
-19 117 -70 124 -114 5 -37 0 -47 -33 -59 -38 -15 -215 -24 -288 -15 -84 10
-93 25 -61 92 28 61 46 78 97 97 50 18 98 17 161 -1z"/>
<path d="M6897 1250 c-83 -21 -154 -75 -176 -133 -15 -38 -14 -106 2 -137 20
-39 89 -85 173 -115 133 -46 203 -83 210 -111 11 -43 -4 -72 -48 -95 -58 -30
-123 -22 -155 18 -44 53 -57 63 -97 74 -54 15 -90 2 -94 -33 -7 -60 176 -193
282 -205 57 -7 166 29 212 70 45 39 64 76 64 124 -1 109 -100 202 -251 234
-108 23 -146 57 -137 120 4 31 62 69 105 69 49 0 100 -24 116 -57 31 -58 87
-84 125 -57 60 42 -13 162 -131 214 -53 24 -147 33 -200 20z"/>
<path d="M10553 1250 c-105 -22 -169 -85 -180 -177 -7 -63 10 -115 47 -146 15
-13 73 -41 127 -62 54 -21 120 -49 146 -63 84 -45 100 -119 32 -148 -65 -27
-128 -11 -195 50 -111 100 -205 39 -117 -76 67 -87 211 -129 328 -95 131 39
203 167 152 274 -20 44 -64 73 -178 118 -106 42 -176 87 -200 128 -17 28 -17
30 4 51 18 18 33 21 94 21 83 -1 126 -19 153 -65 18 -29 67 -60 97 -60 8 0 25
8 37 18 21 17 22 22 11 54 -16 48 -97 123 -168 155 -63 29 -126 37 -190 23z"/>
<path d="M12947 1246 c-75 -16 -134 -72 -185 -175 -36 -72 -37 -79 -37 -180 0
-94 3 -113 27 -163 49 -104 150 -188 244 -204 23 -3 86 1 144 11 58 9 150 15
209 14 l106 -2 3 259 c3 286 -7 408 -37 437 -16 17 -23 18 -55 7 -20 -6 -44
-22 -55 -36 -24 -30 -36 -30 -80 0 -37 25 -127 47 -190 45 -20 0 -62 -6 -94
-13z m221 -131 c82 -35 133 -119 139 -230 4 -62 1 -76 -24 -125 -35 -68 -98
-111 -174 -118 -46 -4 -55 -1 -113 38 -72 49 -101 87 -115 151 -23 101 29 222
114 266 68 36 118 41 173 18z"/>
<path d="M14185 1247 c-118 -31 -215 -109 -261 -210 -25 -55 -29 -73 -28 -157
0 -74 5 -108 22 -151 60 -151 201 -226 375 -199 163 25 287 117 287 212 0 83
-72 71 -180 -28 -38 -35 -81 -66 -95 -70 -73 -18 -173 25 -231 101 -56 74 -20
85 274 92 l232 6 0 96 c0 113 -22 172 -86 233 -76 72 -202 102 -309 75z m181
-147 c52 -26 84 -70 84 -117 0 -27 -5 -33 -37 -44 -42 -14 -290 -18 -335 -6
-19 5 -28 14 -28 28 0 25 43 111 64 128 54 45 171 50 252 11z"/>
<path d="M14912 1250 c-103 -21 -182 -95 -190 -178 -11 -115 64 -180 269 -236
73 -20 114 -58 123 -114 8 -55 -5 -79 -49 -88 -70 -13 -153 18 -174 63 -12 26
-81 62 -119 63 -37 0 -62 -18 -62 -45 0 -34 99 -128 174 -165 73 -37 143 -39
240 -9 160 49 212 183 115 294 -30 34 -90 67 -220 119 -79 32 -139 83 -139
119 0 32 16 45 66 53 65 10 118 -10 161 -62 43 -53 72 -68 108 -54 55 21 41
117 -27 174 -65 56 -184 84 -276 66z"/>
<path d="M2020 1243 c-124 -21 -197 -91 -240 -232 -52 -165 8 -347 144 -438
73 -50 116 -58 211 -43 44 8 144 15 223 17 l142 4 0 343 0 343 -92 7 c-97 6
-346 6 -388 -1z m188 -129 c84 -35 133 -111 140 -220 7 -117 -27 -183 -119
-229 -81 -42 -150 -28 -235 47 -50 44 -74 99 -74 174 0 162 154 284 288 228z"/>
<path d="M7965 1239 c-175 -27 -260 -133 -272 -340 -9 -146 38 -253 141 -324
70 -48 138 -58 263 -38 57 9 143 13 228 11 l138 -3 -7 210 c-3 116 -9 269 -13
342 l-6 132 -46 5 c-92 11 -368 14 -426 5z m194 -139 c44 -22 88 -70 108 -117
19 -47 16 -140 -6 -190 -24 -52 -89 -115 -147 -144 -40 -19 -51 -20 -83 -10
-51 15 -125 82 -161 145 -66 114 -19 254 105 319 43 23 137 22 184 -3z"/>
<path d="M9785 1237 c-69 -23 -100 -44 -153 -102 -157 -172 -99 -477 111 -579
140 -69 354 -23 448 96 122 154 28 203 -127 66 -73 -65 -95 -78 -134 -78 -95
0 -210 76 -210 138 0 22 7 35 22 43 14 7 109 13 266 17 l244 5 -4 96 c-5 112
-23 156 -89 215 -69 63 -139 90 -244 93 -55 2 -105 -2 -130 -10z m238 -134
c37 -22 77 -86 77 -125 0 -40 -30 -52 -140 -52 -185 -2 -260 22 -246 77 25
101 206 159 309 100z"/>
<path d="M11295 1240 c-178 -28 -270 -151 -270 -365 0 -115 21 -177 82 -245
83 -92 175 -120 316 -95 47 8 146 15 230 15 l148 0 -5 52 c-3 29 -8 150 -11
268 -3 118 -8 247 -11 287 l-6 71 -47 6 c-92 11 -367 15 -426 6z m193 -139
c103 -53 150 -164 117 -276 -13 -46 -28 -69 -70 -111 -67 -65 -129 -91 -178
-75 -87 29 -187 164 -187 252 0 85 64 180 145 215 45 20 130 17 173 -5z"/>
<path d="M11913 1235 c-3 -9 -3 -150 -1 -313 5 -324 11 -363 60 -375 35 -9 81
6 94 31 6 12 14 98 17 191 8 216 19 265 66 312 62 63 177 65 237 5 47 -47 61
-113 68 -310 4 -100 12 -180 19 -195 16 -33 74 -48 113 -29 39 18 45 56 33
233 -11 177 -23 254 -50 315 -55 124 -132 150 -451 150 -170 0 -199 -2 -205
-15z"/>
</g>
</svg>
