<!DOCTYPE svg PUBLIC "-//W3C//DTD SVG 20010904//EN" "http://www.w3.org/TR/2001/REC-SVG-20010904/DTD/svg10.dtd">
<svg version="1.0" xmlns="http://www.w3.org/2000/svg" width="396px" height="286px" viewBox="0 0 3960 2860" preserveAspectRatio="xMidYMid meet">
<g id="layer101" fill="#3c0403" stroke="none">
<path d="M2860 2550 c-183 -18 -418 -92 -538 -170 -71 -46 -78 -56 -86 -135 -4 -33 -9 -76 -12 -96 l-5 -37 -93 62 c-166 111 -405 181 -701 206 -300 26 -652 -26 -858 -125 -175 -84 -283 -204 -313 -344 -16 -79 -13 -126 13 -201 14 -43 14 -48 -7 -100 -27 -67 -37 -208 -21 -295 6 -33 27 -92 46 -131 101 -207 326 -343 695 -421 114 -25 144 -27 355 -27 275 -1 396 18 561 85 30 12 34 10 75 -23 140 -111 342 -166 574 -154 338 17 651 161 927 425 196 187 292 358 312 551 16 155 -54 350 -164 460 -52 52 -60 65 -69 116 -41 221 -218 349 -494 359 -62 2 -150 0 -197 -5z"/>
</g>
<g id="layer102" fill="#702a03" stroke="none">
<path d="M2789 2486 c-183 -33 -447 -136 -485 -190 -8 -11 -14 -40 -14 -64 0 -108 -46 -265 -114 -385 -92 -163 -254 -310 -448 -407 -32 -16 -36 -42 -13 -98 21 -50 77 -132 91 -132 21 0 34 -26 39 -77 14 -145 113 -280 255 -351 122 -60 204 -76 395 -75 183 0 258 12 415 68 237 85 547 314 671 497 125 183 168 342 135 496 -15 72 -72 212 -86 212 -4 0 -13 11 -20 25 -35 66 -176 138 -299 153 -49 6 -56 10 -59 30 -3 23 -1 23 60 21 35 -1 83 -8 108 -15 25 -8 51 -14 58 -14 30 0 -2 98 -55 165 -38 48 -116 100 -188 126 -77 27 -328 36 -446 15z"/>
<path d="M1613 2353 c4 -3 10 -3 14 0 3 4 0 7 -7 7 -7 0 -10 -3 -7 -7z"/>
<path d="M1005 2314 c-262 -36 -430 -96 -555 -198 -103 -83 -161 -209 -145 -313 12 -84 16 -87 66 -43 55 47 77 56 95 38 14 -13 10 -19 -32 -59 -26 -24 -55 -52 -65 -61 -10 -10 -31 -41 -46 -70 -26 -50 -28 -60 -28 -183 0 -130 0 -130 37 -208 79 -165 258 -290 528 -369 233 -68 649 -78 880 -21 78 19 140 44 140 57 0 5 -13 30 -29 55 -32 51 -61 138 -61 184 0 23 -10 39 -40 64 -50 43 -103 148 -104 208 -1 52 31 92 97 121 23 10 44 21 47 25 3 3 15 11 28 18 29 15 28 29 -3 41 -14 5 -25 16 -25 25 0 8 -6 15 -12 15 -8 1 -6 6 5 14 21 16 62 8 105 -20 25 -16 25 -16 108 70 46 47 84 92 84 100 0 14 -117 76 -143 76 -16 0 -57 28 -57 39 0 27 115 9 190 -29 22 -11 43 -20 48 -20 5 0 25 36 46 81 40 89 40 88 -17 137 -63 55 -120 87 -232 132 -235 94 -620 133 -910 94z"/>
</g>
<g id="layer103" fill="#92401e" stroke="none">
<path d="M2978 2553 c23 -2 61 -2 85 0 23 2 4 4 -43 4 -47 0 -66 -2 -42 -4z"/>
<path d="M2818 2543 c7 -3 16 -2 19 1 4 3 -2 6 -13 5 -11 0 -14 -3 -6 -6z"/>
<path d="M3158 2543 c7 -3 16 -2 19 1 4 3 -2 6 -13 5 -11 0 -14 -3 -6 -6z"/>
<path d="M2753 2533 c4 -3 10 -3 14 0 3 4 0 7 -7 7 -7 0 -10 -3 -7 -7z"/>
<path d="M3203 2533 c4 -3 10 -3 14 0 3 4 0 7 -7 7 -7 0 -10 -3 -7 -7z"/>
<path d="M2703 2523 c4 -3 10 -3 14 0 3 4 0 7 -7 7 -7 0 -10 -3 -7 -7z"/>
<path d="M2835 2490 c-69 -8 -260 -53 -293 -69 -9 -5 -53 -25 -97 -45 -123 -57 -122 -56 -79 -101 19 -21 49 -62 66 -92 28 -49 58 -68 72 -45 7 11 129 72 154 77 11 2 29 8 39 14 11 5 66 22 124 38 98 26 117 27 321 28 145 1 222 5 229 12 8 8 8 21 -2 47 -7 20 -16 36 -20 36 -4 0 -22 16 -40 35 -19 19 -43 36 -54 37 -11 2 -25 7 -32 11 -36 23 -248 32 -388 17z"/>
<path d="M3405 2440 c3 -5 8 -10 11 -10 3 0 2 5 -1 10 -3 6 -8 10 -11 10 -3 0 -2 -4 1 -10z"/>
<path d="M2334 2388 c-4 -7 -3 -8 4 -4 7 4 12 9 12 12 0 8 -9 4 -16 -8z"/>
<path d="M3450 2396 c0 -2 8 -10 18 -17 15 -13 16 -12 3 4 -13 16 -21 21 -21 13z"/>
<path d="M1038 2373 c6 -2 18 -2 25 0 6 3 1 5 -13 5 -14 0 -19 -2 -12 -5z"/>
<path d="M1458 2373 c6 -2 18 -2 25 0 6 3 1 5 -13 5 -14 0 -19 -2 -12 -5z"/>
<path d="M963 2363 c4 -3 10 -3 14 0 3 4 0 7 -7 7 -7 0 -10 -3 -7 -7z"/>
<path d="M1558 2363 c7 -3 16 -2 19 1 4 3 -2 6 -13 5 -11 0 -14 -3 -6 -6z"/>
<path d="M843 2343 c4 -3 10 -3 14 0 3 4 0 7 -7 7 -7 0 -10 -3 -7 -7z"/>
<path d="M3405 2340 c3 -5 8 -10 11 -10 3 0 2 5 -1 10 -3 6 -8 10 -11 10 -3 0 -2 -4 1 -10z"/>
<path d="M1064 2320 c-191 -19 -359 -62 -493 -129 -82 -40 -207 -148 -217 -187 -3 -13 -10 -24 -15 -24 -4 0 -13 -17 -18 -37 -14 -50 -14 -58 3 -44 8 7 13 23 10 37 -2 13 0 24 6 24 5 0 10 -5 10 -11 0 -6 7 -26 16 -45 23 -47 55 -45 154 11 131 74 261 114 475 146 95 15 509 5 600 -14 39 -8 109 -22 157 -33 87 -18 88 -18 108 1 44 44 43 202 0 225 -28 15 -172 47 -287 65 -128 19 -389 27 -509 15z"/>
<path d="M1763 2323 c4 -3 10 -3 14 0 3 4 0 7 -7 7 -7 0 -10 -3 -7 -7z"/>
<path d="M1833 2303 c4 -3 10 -3 14 0 3 4 0 7 -7 7 -7 0 -10 -3 -7 -7z"/>
<path d="M1863 2293 c4 -3 10 -3 14 0 3 4 0 7 -7 7 -7 0 -10 -3 -7 -7z"/>
<path d="M2232 2225 c0 -16 2 -22 5 -12 2 9 2 23 0 30 -3 6 -5 -1 -5 -18z"/>
<path d="M2155 2150 c3 -5 8 -10 11 -10 3 0 2 5 -1 10 -3 6 -8 10 -11 10 -3 0 -2 -4 1 -10z"/>
<path d="M2220 2140 c0 -7 3 -10 7 -7 3 4 3 10 0 14 -4 3 -7 0 -7 -7z"/>
<path d="M2325 2128 c-2 -13 -7 -39 -9 -58 -9 -59 -62 -202 -100 -265 -76 -127 -174 -224 -335 -331 l-113 -76 6 -36 c12 -75 64 -88 162 -39 86 43 106 55 153 94 77 65 175 176 164 187 -3 3 -1 6 5 6 7 0 12 6 12 14 0 8 7 21 15 30 9 8 16 18 16 20 0 3 11 29 24 59 14 29 26 61 28 72 1 11 6 26 10 33 5 6 6 12 3 12 -3 0 -1 12 4 26 6 14 13 60 16 103 5 66 3 86 -14 125 -23 50 -39 59 -47 24z"/>
<path d="M2190 2126 c0 -2 8 -10 18 -17 15 -13 16 -12 3 4 -13 16 -21 21 -21 13z"/>
<path d="M2964 2111 c-55 -10 -138 -31 -185 -46 -90 -30 -220 -90 -231 -108 -3 -6 4 -32 18 -59 13 -26 24 -54 24 -62 0 -8 7 -22 16 -31 15 -14 19 -14 38 -1 11 9 54 32 95 52 214 105 443 145 646 112 105 -17 139 -16 143 4 4 22 -53 85 -99 109 -100 50 -280 62 -465 30z"/>
<path d="M3590 2107 c0 -2 15 -16 33 -33 l32 -29 -29 33 c-28 30 -36 37 -36 29z"/>
<path d="M3523 2075 c0 -8 3 -13 5 -10 3 3 11 -3 18 -13 7 -9 15 -14 18 -11 3 3 -5 15 -17 27 -18 17 -24 19 -24 7z"/>
<path d="M3665 2020 c3 -5 8 -10 11 -10 3 0 2 5 -1 10 -3 6 -8 10 -11 10 -3 0 -2 -4 1 -10z"/>
<path d="M1135 1940 c-154 -9 -270 -29 -396 -71 -143 -47 -250 -109 -337 -196 -32 -33 -42 -38 -37 -22 6 19 5 20 -8 8 -8 -8 -13 -17 -10 -22 2 -4 -8 -29 -23 -55 -23 -39 -28 -62 -32 -139 -8 -158 38 -265 162 -380 146 -135 359 -220 651 -259 252 -34 670 4 758 69 18 13 18 15 -12 63 -35 53 -61 131 -61 177 0 21 -14 44 -49 82 -53 59 -87 123 -97 183 -7 44 5 75 42 108 13 11 28 32 34 45 5 13 20 36 32 51 12 15 19 31 15 34 -8 8 -188 42 -277 52 -75 8 -456 8 -515 0 -244 -35 -472 -147 -542 -266 -23 -39 -25 -51 -20 -118 5 -67 4 -74 -13 -74 -41 0 -58 134 -25 203 20 42 73 102 125 140 89 66 273 137 422 164 149 26 555 23 668 -6 19 -5 51 -12 70 -14 63 -9 105 -20 118 -30 17 -13 23 -6 29 42 10 74 -10 123 -69 169 -29 23 -176 52 -316 62 -76 5 -141 9 -147 8 -5 0 -68 -4 -140 -8z"/>
<path d="M3115 1914 c-11 -3 -47 -9 -80 -15 -134 -25 -311 -97 -367 -149 -12 -11 -25 -20 -28 -20 -11 0 -30 -74 -30 -114 0 -50 -42 -166 -93 -255 -81 -144 -258 -300 -433 -383 -45 -21 -87 -38 -93 -38 -6 0 -17 -11 -23 -25 -10 -23 -9 -29 13 -50 41 -40 140 -94 219 -119 416 -131 934 41 1299 430 129 139 192 294 177 443 -9 100 -22 134 -69 182 -52 55 -109 83 -211 103 -71 14 -230 20 -281 10z"/>
<path d="M2412 1818 c-35 -126 -114 -269 -184 -338 -16 -15 -28 -31 -29 -36 0 -5 -31 -34 -70 -64 -62 -49 -85 -80 -60 -80 21 0 150 116 223 199 28 33 104 182 132 261 15 41 28 77 29 80 1 3 5 4 9 3 3 -1 -1 11 -9 27 -8 17 -15 30 -16 30 -1 0 -13 -37 -25 -82z"/>
<path d="M3760 1820 c0 -7 3 -10 7 -7 3 4 3 10 0 14 -4 3 -7 0 -7 -7z"/>
<path d="M2497 1813 c-5 -9 -28 -78 -31 -96 -11 -50 -79 -178 -131 -247 -66 -86 -172 -180 -275 -244 -183 -114 -171 -103 -164 -134 13 -50 34 -72 69 -72 37 0 145 47 225 98 65 41 183 157 229 225 98 144 146 344 106 441 -16 37 -21 42 -28 29z"/>
<path d="M3770 1770 c0 -7 3 -10 7 -7 3 4 3 10 0 14 -4 3 -7 0 -7 -7z"/>
<path d="M250 1750 c0 -7 3 -10 7 -7 3 4 3 10 0 14 -4 3 -7 0 -7 -7z"/>
<path d="M260 1720 c0 -7 3 -10 7 -7 3 4 3 10 0 14 -4 3 -7 0 -7 -7z"/>
<path d="M3770 1560 c0 -7 3 -10 7 -7 3 4 3 10 0 14 -4 3 -7 0 -7 -7z"/>
<path d="M230 1510 c0 -7 3 -10 7 -7 3 4 3 10 0 14 -4 3 -7 0 -7 -7z"/>
<path d="M240 1290 c0 -7 3 -10 7 -7 3 4 3 10 0 14 -4 3 -7 0 -7 -7z"/>
<path d="M3614 1228 c-4 -7 -3 -8 4 -4 12 7 16 16 8 16 -3 0 -8 -5 -12 -12z"/>
<path d="M3574 1178 c-4 -7 -3 -8 4 -4 12 7 16 16 8 16 -3 0 -8 -5 -12 -12z"/>
<path d="M340 1086 c0 -2 8 -10 18 -17 15 -13 16 -12 3 4 -13 16 -21 21 -21 13z"/>
<path d="M415 1010 c10 -11 20 -20 23 -20 3 0 -3 9 -13 20 -10 11 -20 20 -23 20 -3 0 3 -9 13 -20z"/>
<path d="M3409 1013 c-13 -16 -12 -17 4 -4 9 7 17 15 17 17 0 8 -8 3 -21 -13z"/>
<path d="M3354 968 c-4 -7 -3 -8 4 -4 12 7 16 16 8 16 -3 0 -8 -5 -12 -12z"/>
<path d="M475 960 c3 -5 8 -10 11 -10 3 0 2 5 -1 10 -3 6 -8 10 -11 10 -3 0 -2 -4 1 -10z"/>
<path d="M505 940 c3 -5 8 -10 11 -10 3 0 2 5 -1 10 -3 6 -8 10 -11 10 -3 0 -2 -4 1 -10z"/>
<path d="M3314 938 c-4 -7 -3 -8 4 -4 7 4 12 9 12 12 0 8 -9 4 -16 -8z"/>
<path d="M3274 908 c-4 -7 -3 -8 4 -4 12 7 16 16 8 16 -3 0 -8 -5 -12 -12z"/>
<path d="M1913 833 c4 -3 10 -3 14 0 3 4 0 7 -7 7 -7 0 -10 -3 -7 -7z"/>
<path d="M1965 800 c3 -5 8 -10 11 -10 3 0 2 5 -1 10 -3 6 -8 10 -11 10 -3 0 -2 -4 1 -10z"/>
<path d="M1783 783 c4 -3 10 -3 14 0 3 4 0 7 -7 7 -7 0 -10 -3 -7 -7z"/>
<path d="M923 773 c4 -3 10 -3 14 0 3 4 0 7 -7 7 -7 0 -10 -3 -7 -7z"/>
<path d="M2005 770 c3 -5 8 -10 11 -10 3 0 2 5 -1 10 -3 6 -8 10 -11 10 -3 0 -2 -4 1 -10z"/>
<path d="M1703 763 c4 -3 10 -3 14 0 3 4 0 7 -7 7 -7 0 -10 -3 -7 -7z"/>
<path d="M1023 753 c4 -3 10 -3 14 0 3 4 0 7 -7 7 -7 0 -10 -3 -7 -7z"/>
<path d="M1643 753 c4 -3 10 -3 14 0 3 4 0 7 -7 7 -7 0 -10 -3 -7 -7z"/>
<path d="M1088 743 c6 -2 18 -2 25 0 6 3 1 5 -13 5 -14 0 -19 -2 -12 -5z"/>
<path d="M1578 743 c7 -3 16 -2 19 1 4 3 -2 6 -13 5 -11 0 -14 -3 -6 -6z"/>
<path d="M1213 733 c4 -3 10 -3 14 0 3 4 0 7 -7 7 -7 0 -10 -3 -7 -7z"/>
<path d="M1458 733 c7 -3 16 -2 19 1 4 3 -2 6 -13 5 -11 0 -14 -3 -6 -6z"/>
<path d="M2873 703 c4 -3 10 -3 14 0 3 4 0 7 -7 7 -7 0 -10 -3 -7 -7z"/>
<path d="M2803 683 c4 -3 10 -3 14 0 3 4 0 7 -7 7 -7 0 -10 -3 -7 -7z"/>
<path d="M2223 673 c4 -3 10 -3 14 0 3 4 0 7 -7 7 -7 0 -10 -3 -7 -7z"/>
<path d="M2763 673 c4 -3 10 -3 14 0 3 4 0 7 -7 7 -7 0 -10 -3 -7 -7z"/>
<path d="M2263 663 c4 -3 10 -3 14 0 3 4 0 7 -7 7 -7 0 -10 -3 -7 -7z"/>
<path d="M2323 653 c4 -3 10 -3 14 0 3 4 0 7 -7 7 -7 0 -10 -3 -7 -7z"/>
<path d="M2658 653 c7 -3 16 -2 19 1 4 3 -2 6 -13 5 -11 0 -14 -3 -6 -6z"/>
<path d="M2438 643 c28 -2 76 -2 105 0 28 2 5 3 -53 3 -58 0 -81 -1 -52 -3z"/>
</g>
<g id="layer104" fill="#ae532e" stroke="none">
<path d="M2948 2553 c6 -2 18 -2 25 0 6 3 1 5 -13 5 -14 0 -19 -2 -12 -5z"/>
<path d="M3068 2553 c6 -2 18 -2 25 0 6 3 1 5 -13 5 -14 0 -19 -2 -12 -5z"/>
<path d="M3163 2543 c4 -3 10 -3 14 0 3 4 0 7 -7 7 -7 0 -10 -3 -7 -7z"/>
<path d="M1033 2373 c4 -3 10 -3 14 0 3 4 0 7 -7 7 -7 0 -10 -3 -7 -7z"/>
<path d="M1473 2373 c4 -3 10 -3 14 0 3 4 0 7 -7 7 -7 0 -10 -3 -7 -7z"/>
<path d="M2800 2333 c-45 -8 -115 -33 -138 -51 -12 -10 -25 -30 -28 -46 -5 -30 0 -30 66 -3 14 5 34 12 45 14 11 2 27 6 35 10 8 3 22 7 30 8 8 1 38 7 66 14 29 7 59 13 68 15 8 1 19 6 23 11 4 4 3 5 -3 2 -7 -4 -14 2 -17 13 -4 17 -13 20 -64 19 -32 -1 -69 -4 -83 -6z"/>
<path d="M1803 2313 c4 -3 10 -3 14 0 3 4 0 7 -7 7 -7 0 -10 -3 -7 -7z"/>
<path d="M2231 2234 c0 -11 3 -14 6 -6 3 7 2 16 -1 19 -3 4 -6 -2 -5 -13z"/>
<path d="M3552 2150 c0 -14 2 -19 5 -12 2 6 2 18 0 25 -3 6 -5 1 -5 -13z"/>
<path d="M369 2123 l-24 -28 28 24 c25 23 32 31 24 31 -2 0 -14 -12 -28 -27z"/>
<path d="M2325 2103 c-11 -76 -60 -215 -107 -299 -59 -107 -192 -241 -323 -327 -55 -35 -106 -72 -114 -81 -28 -33 16 -106 63 -106 14 0 66 21 116 47 173 88 321 264 384 456 30 92 50 217 41 260 -9 41 -35 97 -45 97 -4 0 -11 -21 -15 -47z"/>
<path d="M1060 2137 c-3 -3 -30 -6 -60 -8 -30 -1 -64 -6 -75 -10 -11 -4 -45 -12 -75 -19 -61 -14 -100 -36 -100 -55 0 -21 29 -26 74 -14 22 7 48 13 56 14 8 1 49 7 91 13 43 7 166 11 275 11 208 0 248 -2 302 -14 21 -5 32 -4 32 3 0 21 -43 51 -89 62 -47 12 -422 26 -431 17z"/>
<path d="M2195 2120 c3 -5 8 -10 11 -10 3 0 2 5 -1 10 -3 6 -8 10 -11 10 -3 0 -2 -4 1 -10z"/>
<path d="M3595 2100 c3 -5 8 -10 11 -10 3 0 2 5 -1 10 -3 6 -8 10 -11 10 -3 0 -2 -4 1 -10z"/>
<path d="M3620 2076 c0 -2 8 -10 18 -17 15 -13 16 -12 3 4 -13 16 -21 21 -21 13z"/>
<path d="M2925 2001 c-107 -28 -249 -92 -259 -117 -3 -9 -1 -24 4 -34 8 -15 14 -16 35 -7 14 7 25 15 25 18 0 4 60 25 133 48 186 60 191 61 214 61 12 0 28 7 36 15 8 8 18 11 23 7 5 -4 0 3 -10 16 -25 28 -67 27 -201 -7z"/>
<path d="M3105 1913 c-16 -2 -59 -12 -95 -23 -36 -10 -98 -28 -137 -40 -40 -11 -73 -26 -73 -32 0 -6 -3 -9 -6 -5 -10 10 -87 -36 -131 -79 -35 -33 -43 -48 -43 -77 0 -42 -25 -169 -39 -194 -5 -10 -21 -43 -36 -73 -15 -30 -40 -72 -56 -93 -17 -21 -27 -42 -23 -50 4 -6 4 -9 0 -5 -5 4 -38 -22 -74 -58 -37 -35 -70 -64 -74 -64 -3 0 -23 -16 -44 -35 -20 -19 -45 -35 -55 -35 -9 0 -19 -4 -21 -9 -1 -5 -32 -23 -68 -41 -36 -18 -73 -39 -82 -47 -9 -8 -21 -13 -25 -10 -5 3 -19 -3 -33 -13 -20 -15 -22 -20 -11 -34 7 -9 10 -16 7 -16 -10 0 25 -34 61 -59 18 -12 38 -19 44 -15 7 4 9 3 5 -4 -8 -13 29 -26 45 -16 7 4 9 3 6 -3 -8 -12 97 -49 179 -63 84 -14 329 -10 361 7 14 7 29 11 33 8 12 -7 70 6 65 15 -3 5 5 6 17 2 14 -3 19 -1 14 6 -4 8 -2 10 8 6 8 -3 21 -2 28 2 7 4 19 9 28 10 30 3 45 9 58 24 8 8 11 9 7 3 -3 -7 -4 -13 0 -13 8 0 59 33 66 43 3 5 9 9 12 9 18 0 47 11 47 18 0 6 15 13 50 24 14 4 171 114 213 149 37 30 45 42 35 49 -9 7 -8 8 5 4 19 -6 51 17 40 28 -4 3 0 6 9 6 19 0 50 34 41 45 -5 4 -3 5 3 2 14 -8 47 26 37 38 -5 4 -3 5 4 1 14 -8 39 31 35 54 -2 12 -1 12 6 2 7 -10 17 0 41 38 17 28 29 55 26 61 -4 5 -2 9 2 9 5 0 18 26 28 57 15 44 20 84 20 163 0 58 -4 115 -7 128 -9 30 -47 92 -57 92 -4 0 -16 8 -27 18 -79 71 -288 109 -469 85z m-147 -250 c3 -17 -5 -26 -30 -37 -18 -9 -40 -21 -50 -28 -13 -9 -20 -9 -32 1 -34 28 37 94 94 88 8 -1 16 -12 18 -24z m422 -54 c0 -12 -10 -21 -27 -25 -16 -4 -41 -16 -56 -26 -34 -24 -60 -17 -55 14 4 30 104 84 125 67 7 -6 13 -20 13 -30z m-402 -251 c2 -12 -10 -24 -42 -38 -25 -12 -50 -28 -57 -36 -13 -16 -49 -2 -49 19 1 18 35 56 62 67 35 14 82 8 86 -12z m332 -23 c16 -20 -3 -45 -35 -45 -12 0 -34 -9 -48 -20 -14 -11 -32 -20 -41 -20 -20 0 -35 32 -18 38 7 2 12 10 12 17 0 14 63 44 96 44 12 1 27 -6 34 -14z m-386 -264 c11 -17 -5 -39 -32 -46 -14 -3 -32 -15 -40 -26 -25 -36 -70 -20 -57 20 12 40 112 80 129 52z m-346 -43 c-2 -15 -11 -24 -26 -26 -12 -2 -32 -17 -44 -33 -24 -32 -40 -36 -57 -15 -9 11 -10 20 -1 36 24 45 44 58 88 59 39 1 43 -1 40 -21z"/>
<path d="M1110 1818 c-80 -3 -164 -11 -186 -17 -23 -6 -65 -15 -94 -21 -77 -15 -208 -69 -225 -94 -20 -28 -19 -66 1 -66 8 0 35 12 60 26 24 14 44 23 44 19 0 -4 6 -2 13 4 8 6 17 8 20 4 4 -3 13 0 21 6 8 7 29 14 46 16 18 3 42 8 54 11 86 29 351 43 546 30 104 -7 195 -18 205 -25 12 -9 65 -13 65 -6 0 19 -40 59 -74 75 -73 33 -273 49 -496 38z"/>
<path d="M2495 1808 c-2 -7 -11 -38 -20 -69 -17 -62 -78 -186 -124 -253 -75 -108 -219 -230 -378 -317 -67 -37 -73 -43 -73 -73 0 -38 34 -76 69 -76 39 0 222 96 288 150 189 157 317 437 273 595 -13 48 -27 65 -35 43z"/>
<path d="M280 1670 c0 -7 3 -10 7 -7 3 4 3 10 0 14 -4 3 -7 0 -7 -7z"/>
<path d="M1068 1675 c-2 -3 -29 -7 -59 -10 -30 -3 -66 -7 -81 -9 -82 -12 -114 -19 -123 -25 -5 -3 -12 -6 -15 -6 -3 -1 -19 -8 -35 -17 -17 -9 -47 -19 -68 -23 -20 -4 -37 -11 -37 -16 0 -5 -9 -9 -19 -9 -10 0 -21 -6 -24 -14 -3 -7 -18 -16 -34 -19 -25 -5 -142 -106 -144 -125 0 -4 -2 -16 -4 -27 -13 -72 -15 -89 -7 -77 5 7 8 -4 6 -30 -2 -58 -2 -58 -20 -58 -10 0 -14 -7 -12 -22 2 -13 9 -22 15 -21 7 2 15 -6 18 -17 4 -11 11 -20 16 -20 5 0 8 -3 7 -7 -5 -15 46 -73 60 -68 7 2 11 1 8 -4 -7 -11 42 -54 95 -83 24 -12 47 -27 50 -31 9 -12 149 -67 171 -67 10 0 32 -7 49 -15 16 -9 34 -13 40 -10 5 4 16 2 23 -4 7 -6 33 -12 58 -14 25 -2 50 -7 57 -11 18 -12 201 -21 351 -18 134 3 305 25 326 43 6 5 13 6 16 3 9 -8 88 18 82 27 -3 5 1 6 9 3 19 -7 34 16 17 26 -7 4 -9 13 -5 20 5 8 4 11 -2 7 -6 -4 -14 1 -19 11 -4 9 -8 19 -9 22 -2 3 -6 16 -10 28 -5 15 -10 19 -15 13 -3 -7 -7 3 -8 21 -3 90 -14 123 -53 164 -22 22 -36 44 -32 49 5 4 0 5 -10 2 -10 -4 -16 -3 -13 1 3 5 -6 30 -19 57 -14 27 -25 56 -25 65 0 9 -6 22 -12 29 -10 11 -10 13 0 7 8 -5 12 3 12 27 0 19 7 40 15 47 8 7 12 16 9 21 -3 5 1 7 8 4 8 -3 26 14 43 40 17 24 34 45 39 45 5 0 2 8 -5 17 -12 15 -12 16 1 8 13 -8 13 -6 2 7 -7 9 -21 17 -30 17 -47 2 -78 7 -82 13 -3 3 -39 9 -80 13 -41 4 -93 11 -115 16 -41 9 -368 13 -377 4z m458 -151 c15 -4 20 -12 17 -28 -4 -21 -10 -23 -71 -22 -57 1 -67 4 -70 20 -2 10 2 22 10 27 15 10 82 12 114 3z m-433 -73 c8 -8 8 -16 1 -28 -7 -12 -26 -16 -73 -17 -77 -1 -99 15 -61 46 20 16 35 19 73 15 26 -2 53 -9 60 -16z m-339 -178 c10 -26 -4 -34 -49 -28 -27 5 -45 3 -49 -4 -10 -16 -46 -13 -53 4 -3 9 2 24 12 35 30 33 126 29 139 -7z m647 -14 c19 -19 20 -23 6 -37 -13 -13 -20 -13 -46 -2 -25 10 -37 10 -62 0 -32 -14 -48 -4 -49 28 0 35 118 44 151 11z m346 -106 c-4 -3 -7 0 -7 7 0 7 3 10 7 7 3 -4 3 -10 0 -14z m-625 -47 c13 -19 9 -46 -7 -52 -8 -3 -28 -2 -43 4 -19 6 -35 6 -46 0 -13 -7 -22 -6 -32 4 -12 12 -12 17 1 35 8 12 25 24 38 26 31 6 80 -3 89 -17z m545 -35 c22 -29 8 -36 -71 -38 -62 -1 -78 2 -83 14 -4 10 3 23 17 35 20 16 33 18 74 12 28 -3 56 -14 63 -23z"/>
<path d="M1583 743 c4 -3 10 -3 14 0 3 4 0 7 -7 7 -7 0 -10 -3 -7 -7z"/>
<path d="M2663 653 c4 -3 10 -3 14 0 3 4 0 7 -7 7 -7 0 -10 -3 -7 -7z"/>
<path d="M2398 643 c6 -2 18 -2 25 0 6 3 1 5 -13 5 -14 0 -19 -2 -12 -5z"/>
<path d="M2558 643 c6 -2 18 -2 25 0 6 3 1 5 -13 5 -14 0 -19 -2 -12 -5z"/>
</g>
<g id="layer105" fill="#d88b07" stroke="none">
<path d="M2337 2143 c-3 -4 -10 -35 -17 -68 -49 -241 -195 -447 -420 -594 -114 -75 -130 -89 -130 -112 0 -28 49 -79 75 -79 13 0 63 20 112 45 195 100 347 293 402 511 29 114 34 175 21 225 -13 48 -35 85 -43 72z"/>
<path d="M2490 1785 c-5 -14 -13 -38 -17 -53 -25 -103 -126 -266 -223 -362 -64 -64 -206 -165 -307 -220 -37 -20 -43 -28 -43 -55 0 -21 9 -40 25 -55 31 -29 61 -24 180 35 209 102 359 287 415 509 23 91 25 133 8 187 -13 45 -25 49 -38 14z"/>
</g>
<g id="layer106" fill="#cd6e35" stroke="none">
<path d="M1168 2383 c6 -2 18 -2 25 0 6 3 1 5 -13 5 -14 0 -19 -2 -12 -5z"/>
<path d="M1343 2383 c4 -3 10 -3 14 0 3 4 0 7 -7 7 -7 0 -10 -3 -7 -7z"/>
<path d="M1563 2363 c4 -3 10 -3 14 0 3 4 0 7 -7 7 -7 0 -10 -3 -7 -7z"/>
<path d="M2230 2240 c0 -7 3 -10 7 -7 3 4 3 10 0 14 -4 3 -7 0 -7 -7z"/>
<path d="M3551 2154 c0 -11 3 -14 6 -6 3 7 2 16 -1 19 -3 4 -6 -2 -5 -13z"/>
<path d="M384 2138 c-4 -7 -3 -8 4 -4 12 7 16 16 8 16 -3 0 -8 -5 -12 -12z"/>
<path d="M2336 2125 c-5 -16 -10 -37 -12 -45 -8 -44 -15 -77 -21 -90 -3 -8 -8 -23 -10 -33 -2 -10 -9 -28 -15 -40 -7 -12 -13 -24 -13 -27 -4 -23 -18 -50 -26 -50 -6 0 -7 -4 -4 -10 3 -5 1 -10 -5 -10 -6 0 -8 -4 -5 -10 3 -5 3 -10 -2 -10 -4 0 -14 -12 -20 -27 -20 -46 -145 -189 -171 -198 -27 -8 -45 -46 -48 -98 -3 -71 17 -123 40 -99 4 4 11 7 14 7 4 0 17 9 28 20 12 11 48 45 80 75 33 30 59 58 59 63 0 5 7 14 15 20 8 7 26 32 39 57 13 25 31 53 39 63 8 9 12 17 8 17 -3 0 1 15 11 33 9 17 18 35 19 40 1 4 2 8 3 10 2 1 4 13 7 27 2 14 7 32 11 40 18 43 33 190 21 213 -5 9 -6 17 -2 17 3 0 1 6 -5 13 -6 8 -8 17 -4 20 3 4 1 7 -5 7 -6 0 -12 8 -14 18 -3 12 -6 8 -12 -13z"/>
<path d="M242 1830 c0 -19 2 -27 5 -17 2 9 2 25 0 35 -3 9 -5 1 -5 -18z"/>
<path d="M2501 1797 c-7 -9 -14 -24 -16 -34 -2 -10 -4 -18 -5 -18 -1 0 -3 -7 -5 -15 -2 -8 -9 -28 -16 -45 -7 -16 -13 -32 -13 -35 -3 -20 -41 -90 -48 -90 -5 0 -6 -4 -3 -10 3 -5 1 -10 -4 -10 -6 0 -11 -7 -11 -15 0 -8 -4 -15 -10 -15 -5 0 -10 -6 -10 -13 0 -11 -86 -112 -120 -142 -6 -5 -31 -29 -55 -52 -24 -24 -50 -43 -59 -43 -9 0 -16 -4 -16 -10 0 -5 -7 -10 -15 -10 -8 0 -15 -4 -15 -10 0 -5 -6 -10 -14 -10 -38 0 -30 -129 9 -144 16 -6 95 23 95 36 0 4 7 8 15 8 8 0 15 5 15 10 0 6 5 10 10 10 6 0 18 8 28 18 10 9 41 38 68 63 58 54 94 95 94 109 0 6 5 10 10 10 6 0 10 7 10 15 0 8 5 15 12 15 6 0 9 3 5 6 -3 3 8 28 24 55 16 28 29 53 29 58 0 4 10 37 21 72 22 67 28 169 12 223 -8 25 -10 26 -22 13z"/>
<path d="M2683 1733 c4 -3 10 -3 14 0 3 4 0 7 -7 7 -7 0 -10 -3 -7 -7z"/>
<path d="M2654 1718 c-4 -7 -3 -8 4 -4 7 4 12 9 12 12 0 8 -9 4 -16 -8z"/>
<path d="M2653 1702 c-14 -2 -23 -10 -23 -20 0 -15 2 -15 10 -2 5 8 10 10 10 5 0 -6 -4 -15 -9 -20 -5 -6 -12 -28 -15 -50 -5 -31 -4 -37 4 -25 10 12 11 10 6 -10 -3 -14 -6 -31 -6 -38 0 -7 -5 -10 -12 -6 -8 5 -9 0 -5 -16 6 -25 -3 -52 -53 -155 -21 -43 -38 -64 -60 -73 -16 -8 -30 -21 -30 -30 0 -15 2 -15 10 -2 5 8 10 11 10 6 0 -17 -51 -76 -61 -70 -5 3 -8 0 -7 -7 2 -6 -16 -26 -39 -44 -37 -29 -40 -35 -29 -50 20 -27 54 -13 117 47 138 133 215 292 226 469 6 92 3 99 -44 91z"/>
<path d="M3783 1670 c0 -25 2 -35 4 -22 2 12 2 32 0 45 -2 12 -4 2 -4 -23z"/>
<path d="M1804 1418 c-4 -7 -3 -8 4 -4 7 4 12 9 12 12 0 8 -9 4 -16 -8z"/>
<path d="M1785 1330 c3 -5 8 -10 11 -10 3 0 2 5 -1 10 -3 6 -8 10 -11 10 -3 0 -2 -4 1 -10z"/>
<path d="M1823 1293 c4 -3 10 -3 14 0 3 4 0 7 -7 7 -7 0 -10 -3 -7 -7z"/>
<path d="M2446 1223 c-6 -14 -5 -15 5 -6 7 7 10 15 7 18 -3 3 -9 -2 -12 -12z"/>
<path d="M505 1120 c-27 -44 149 -169 310 -220 22 -7 46 -17 52 -22 7 -6 27 -11 45 -13 18 -1 73 -9 122 -19 163 -30 263 -16 236 34 -7 13 -28 19 -87 24 -259 23 -479 98 -602 205 -25 22 -66 28 -76 11z"/>
<path d="M1420 901 c-42 -6 -45 -8 -45 -36 0 -30 1 -30 54 -30 60 0 85 20 65 52 -13 21 -17 21 -74 14z"/>
<path d="M2003 903 c4 -3 10 -3 14 0 3 4 0 7 -7 7 -7 0 -10 -3 -7 -7z"/>
<path d="M2070 872 c0 -20 9 -35 30 -50 16 -12 34 -22 40 -22 5 0 10 -4 10 -10 0 -6 3 -9 8 -9 4 1 9 0 12 -1 3 -1 17 -4 32 -6 15 -3 45 -11 68 -19 22 -8 82 -17 133 -20 51 -3 116 -8 145 -10 35 -4 51 -2 47 5 -3 5 1 10 9 10 17 0 32 42 21 60 -5 8 -34 9 -94 5 -124 -9 -254 14 -345 59 -89 45 -116 47 -116 8z"/>
<path d="M2728 838 c-22 -7 -28 -16 -28 -38 0 -34 12 -39 70 -30 25 4 39 8 32 9 -9 1 -10 6 -2 20 7 15 6 23 -6 35 -17 18 -27 19 -66 4z"/>
<path d="M1213 813 c9 -2 25 -2 35 0 9 3 1 5 -18 5 -19 0 -27 -2 -17 -5z"/>
<path d="M1083 743 c4 -3 10 -3 14 0 3 4 0 7 -7 7 -7 0 -10 -3 -7 -7z"/>
<path d="M2610 726 c0 -2 11 -6 25 -8 13 -3 22 -1 19 3 -5 9 -44 13 -44 5z"/>
<path d="M2393 643 c4 -3 10 -3 14 0 3 4 0 7 -7 7 -7 0 -10 -3 -7 -7z"/>
<path d="M2573 643 c4 -3 10 -3 14 0 3 4 0 7 -7 7 -7 0 -10 -3 -7 -7z"/>
</g>
<g id="layer107" fill="#f2b742" stroke="none">
<path d="M1901 2696 c-12 -28 -31 -50 -50 -61 -40 -20 -39 -36 5 -70 20 -15 42 -43 50 -61 21 -49 47 -45 74 12 12 25 31 51 41 57 27 17 23 43 -10 66 -16 11 -36 39 -45 61 -9 22 -22 40 -30 40 -8 0 -24 -20 -35 -44z m54 -116 l-18 -20 -20 21 c-18 19 -18 21 -1 40 18 20 18 20 38 0 19 -20 19 -21 1 -41z"/>
<path d="M2335 2115 c-59 -248 -119 -361 -268 -508 -77 -75 -80 -80 -83 -129 -2 -48 11 -108 24 -108 17 1 198 157 197 170 0 3 12 21 27 40 42 56 94 168 122 265 31 108 34 202 7 260 l-18 40 -8 -30z"/>
<path d="M2490 1780 c-6 -11 -8 -20 -6 -20 7 0 -39 -121 -65 -173 -30 -59 -101 -155 -149 -202 -22 -22 -55 -54 -73 -72 -18 -17 -60 -50 -94 -72 -68 -44 -76 -62 -52 -129 20 -57 49 -51 164 34 83 60 205 188 205 214 0 6 5 10 10 10 6 0 9 3 8 8 -1 4 10 30 24 57 38 74 70 191 69 254 -1 100 -17 136 -41 91z"/>
<path d="M153 953 c-15 -6 -18 -89 -3 -98 21 -13 49 14 48 47 -1 47 -16 63 -45 51z"/>
<path d="M35 820 c-13 -22 17 -41 59 -38 33 2 41 7 41 23 0 17 -8 20 -47 23 -26 2 -49 -2 -53 -8z"/>
<path d="M197 817 c-10 -26 9 -38 54 -35 37 2 45 7 47 26 3 20 0 22 -46 22 -33 0 -52 -5 -55 -13z"/>
<path d="M153 753 c-20 -8 -17 -102 3 -110 23 -9 45 24 41 62 -5 49 -15 60 -44 48z"/>
<path d="M1922 508 c-7 -7 -12 -18 -12 -25 0 -7 -20 -28 -45 -45 -25 -18 -45 -35 -45 -38 0 -4 18 -21 40 -39 22 -17 47 -45 55 -61 20 -40 43 -38 60 4 8 19 26 43 40 54 33 26 32 35 -8 85 -19 23 -37 50 -40 60 -7 20 -28 22 -45 5z m42 -101 c8 -12 7 -21 -5 -32 -14 -14 -17 -14 -34 5 -15 16 -16 22 -5 35 15 18 29 16 44 -8z"/>
<path d="M3091 476 c-19 -23 -10 -90 13 -94 10 -2 22 2 27 10 13 19 11 72 -3 86 -16 16 -23 15 -37 -2z"/>
<path d="M2987 363 c-12 -3 -17 -12 -15 -26 2 -18 11 -23 46 -25 32 -2 44 1 49 14 11 30 -30 50 -80 37z"/>
<path d="M3170 363 c-45 -17 -25 -53 30 -53 47 0 68 21 45 44 -16 16 -47 20 -75 9z"/>
<path d="M1433 293 c-7 -3 -13 -13 -13 -23 0 -10 -24 -39 -52 -64 l-53 -46 48 -41 c26 -22 54 -54 63 -70 21 -41 40 -36 68 19 13 26 33 56 45 66 29 27 26 48 -12 71 -18 11 -38 34 -46 52 -15 34 -28 43 -48 36z m38 -109 c18 -16 18 -18 2 -45 -21 -35 -28 -36 -49 -4 -16 24 -16 27 1 45 22 24 24 24 46 4z"/>
<path d="M3092 288 c-17 -17 -15 -93 3 -108 24 -20 45 5 45 54 0 55 -22 80 -48 54z"/>
</g>


</svg>